<?xml version="1.0" encoding="utf-8"?>
<!-- Generator: Adobe Illustrator 24.0.0, SVG Export Plug-In . SVG Version: 6.00 Build 0)  -->
<svg version="1.1" id="Layer_1" xmlns="http://www.w3.org/2000/svg" xmlns:xlink="http://www.w3.org/1999/xlink" x="0px" y="0px"
	 viewBox="0 0 399 97" style="enable-background:new 0 0 399 97;" xml:space="preserve">
<style type="text/css">
	.st0{fill:url(#SVGID_1_);}
	.st1{fill:url(#SVGID_2_);}
	.st2{fill:url(#SVGID_3_);}
	.st3{fill:url(#SVGID_4_);}
	.st4{fill:url(#SVGID_5_);}
	.st5{fill:url(#SVGID_6_);}
	.st6{fill:url(#SVGID_7_);}
	.st7{fill:url(#SVGID_8_);}
</style>
<g>
	
		<linearGradient id="SVGID_1_" gradientUnits="userSpaceOnUse" x1="20.6885" y1="918.8474" x2="646.3336" y2="959.0386" gradientTransform="matrix(1 0 0 1 0 -866)">
		<stop  offset="2.230000e-02" style="stop-color:#BC9873"/>
		<stop  offset="0.2212" style="stop-color:#CDAC80"/>
		<stop  offset="0.3832" style="stop-color:#F5EBBA"/>
		<stop  offset="0.791" style="stop-color:#F5EBBA"/>
		<stop  offset="1" style="stop-color:#BC9873"/>
	</linearGradient>
	<path class="st0" d="M49.2,27.8v10.4H38.9v41.6H21.5V38.2H11.3V27.8H49.2L49.2,27.8z"/>
	
		<linearGradient id="SVGID_2_" gradientUnits="userSpaceOnUse" x1="21.7045" y1="906.6609" x2="642.1949" y2="946.5211" gradientTransform="matrix(1 0 0 1 0 -866)">
		<stop  offset="2.230000e-02" style="stop-color:#BC9873"/>
		<stop  offset="0.2212" style="stop-color:#CDAC80"/>
		<stop  offset="0.3832" style="stop-color:#F5EBBA"/>
		<stop  offset="0.791" style="stop-color:#F5EBBA"/>
		<stop  offset="1" style="stop-color:#BC9873"/>
	</linearGradient>
	<path class="st1" d="M92.9,58.2c0,5.3-0.1,8.9-0.5,11.1s-1.3,4.1-2.9,6c-1.7,1.8-3.9,3.2-6.7,4.1c-2.8,1-6.1,1.5-9.9,1.5
		c-3.6,0-6.8-0.4-9.6-1.3c-2.9-0.9-5.1-2.2-6.9-4.1c-1.8-1.8-2.7-3.8-3.1-6c-0.4-2.2-0.5-5.9-0.5-11.2v-9c0-5.3,0.1-8.9,0.5-11.1
		c0.3-2.2,1.3-4.1,2.9-6c1.7-1.8,3.9-3.2,6.7-4.1c2.8-1,6.1-1.5,9.9-1.5c3.6,0,6.8,0.4,9.6,1.3c2.9,0.9,5.1,2.2,6.9,4.1
		c1.8,1.8,2.7,3.8,3.1,6c0.4,2.2,0.5,5.9,0.5,11.2L92.9,58.2L92.9,58.2z M73,22l-3.2,3.6h-7.9l7.2-7.8h7.9l6.7,7.8h-7.6L73,22z
		 M75.5,41.1c0-2.5-0.1-4-0.5-4.6c-0.4-0.7-1.1-1-2.1-1c-0.9,0-1.6,0.3-2.1,0.8c-0.5,0.6-0.7,2.2-0.7,4.8v24.3c0,3,0.1,4.9,0.5,5.6
		c0.3,0.7,1.1,1.1,2.2,1.1c1.2,0,2-0.4,2.2-1.2c0.4-0.8,0.5-2.7,0.5-5.8V41.1z M80.2,19.3v-1.1c0-0.7,1.1-2,3.1-3.6
		c0.5-0.4,0.8-0.7,1.1-1.1c0.3-0.4,0.4-0.8,0.4-1.3c0-0.6-0.1-0.9-0.4-1.2c-0.1-0.2-0.6-0.3-1.3-0.4c-1.5,0-2.2,0.6-2.2,1.8v1.3
		h-4.6v-1.5c0-1.1,0.6-2.2,1.7-3.1c1.3-1,3-1.5,5.3-1.5c1.9,0,3.4,0.4,4.6,1.1c1.2,0.7,1.8,1.8,1.8,3.3c0,1.3-0.9,2.5-2.7,3.7
		c-1.9,1.2-2.8,2.4-2.8,3.5L80.2,19.3L80.2,19.3z"/>
	
		<linearGradient id="SVGID_3_" gradientUnits="userSpaceOnUse" x1="23.1441" y1="913.6846" x2="635.7166" y2="953.0362" gradientTransform="matrix(1 0 0 1 0 -866)">
		<stop  offset="2.230000e-02" style="stop-color:#BC9873"/>
		<stop  offset="0.2212" style="stop-color:#CDAC80"/>
		<stop  offset="0.3832" style="stop-color:#F5EBBA"/>
		<stop  offset="0.791" style="stop-color:#F5EBBA"/>
		<stop  offset="1" style="stop-color:#BC9873"/>
	</linearGradient>
	<path class="st2" d="M138.1,27.8v52h-15.2l-9-23.6v23.6H99.4v-52h14.5l9.7,23.4V27.8H138.1z"/>
	
		<linearGradient id="SVGID_4_" gradientUnits="userSpaceOnUse" x1="23.4249" y1="910.852" x2="640.3394" y2="950.4825" gradientTransform="matrix(1 0 0 1 0 -866)">
		<stop  offset="2.230000e-02" style="stop-color:#BC9873"/>
		<stop  offset="0.2212" style="stop-color:#CDAC80"/>
		<stop  offset="0.3832" style="stop-color:#F5EBBA"/>
		<stop  offset="0.791" style="stop-color:#F5EBBA"/>
		<stop  offset="1" style="stop-color:#BC9873"/>
	</linearGradient>
	<path class="st3" d="M184.9,47h-17.4v-4.7c0-2.9-0.1-4.8-0.5-5.6c-0.4-0.8-1.1-1.1-2.4-1.1c-1.1,0-1.8,0.4-2.2,1
		c-0.4,0.6-0.6,2.3-0.6,5v25c0,2.3,0.2,3.9,0.6,4.6c0.4,0.8,1.1,1.1,2.3,1.1c1.3,0,2.1-0.4,2.6-1.3c0.4-0.8,0.7-2.5,0.7-4.9v-6.2
		h-3.5v-8h20.3v27.9H174l-1.6-3.7c-1.2,1.6-2.7,2.8-4.5,3.6c-1.8,0.8-3.9,1.2-6.4,1.2c-2.9,0-5.6-0.6-8.2-1.7
		c-2.5-1.1-4.5-2.5-5.8-4.1c-1.3-1.6-2.2-3.4-2.5-5.1c-0.4-1.8-0.5-4.5-0.5-8.1V46.5c0-5,0.4-8.6,1.1-10.8s2.7-4.3,5.9-6.2
		c3.2-1.9,7.5-2.8,12.6-2.8c5.1,0,9.3,0.8,12.7,2.5c3.4,1.6,5.5,3.6,6.6,5.8c1.1,2.2,1.5,5.5,1.5,9.7L184.9,47L184.9,47z"/>
	
		<linearGradient id="SVGID_5_" gradientUnits="userSpaceOnUse" x1="25.4385" y1="908.9156" x2="640.5266" y2="948.4288" gradientTransform="matrix(1 0 0 1 0 -866)">
		<stop  offset="2.230000e-02" style="stop-color:#BC9873"/>
		<stop  offset="0.2212" style="stop-color:#CDAC80"/>
		<stop  offset="0.3832" style="stop-color:#F5EBBA"/>
		<stop  offset="0.791" style="stop-color:#F5EBBA"/>
		<stop  offset="1" style="stop-color:#BC9873"/>
	</linearGradient>
	<path class="st4" d="M252.4,79.8v6.3h-13.1c-3.2,0-5.4-0.2-6.7-0.6s-2.2-0.9-2.6-1.7c-0.4-0.8-0.7-2.1-0.7-4.1
		c-3.9-0.1-7.3-0.9-10.2-2.4c-2.8-1.5-4.7-3.4-5.6-5.8c-0.9-2.3-1.3-5.8-1.3-10.5V45c0-3.5,0.3-6.2,0.8-8.1c0.6-1.8,1.6-3.6,3.3-5.3
		c1.7-1.6,3.9-2.9,6.5-3.7c2.7-0.8,5.5-1.3,8.8-1.3c3.9,0,7.4,0.5,10.4,1.5c3,1.1,5.3,2.3,6.8,3.9c1.5,1.6,2.5,3.2,2.9,4.9
		c0.4,1.7,0.7,4.2,0.7,7.6v16.9c0,4.6-0.3,7.8-0.8,9.4c-0.6,1.7-1.7,2.9-3.3,3.9c-1.6,1-3.8,1.8-6.5,2.2c0.1,1.2,0.4,1.9,0.9,2.2
		c0.6,0.3,1.8,0.4,3.8,0.4L252.4,79.8L252.4,79.8z M234.9,41.1c0-2.5-0.1-4-0.5-4.6c-0.4-0.6-1.1-1-2.1-1c-0.9,0-1.6,0.3-2.1,0.8
		c-0.5,0.6-0.7,2.2-0.7,4.8v24.3c0,3,0.1,4.9,0.5,5.6c0.3,0.7,1.1,1.1,2.2,1.1c1.2,0,2-0.4,2.2-1.2c0.4-0.8,0.5-2.7,0.5-5.8
		L234.9,41.1L234.9,41.1z"/>
	
		<linearGradient id="SVGID_6_" gradientUnits="userSpaceOnUse" x1="26.6693" y1="903.6074" x2="642.9105" y2="943.1947" gradientTransform="matrix(1 0 0 1 0 -866)">
		<stop  offset="2.230000e-02" style="stop-color:#BC9873"/>
		<stop  offset="0.2212" style="stop-color:#CDAC80"/>
		<stop  offset="0.3832" style="stop-color:#F5EBBA"/>
		<stop  offset="0.791" style="stop-color:#F5EBBA"/>
		<stop  offset="1" style="stop-color:#BC9873"/>
	</linearGradient>
	<path class="st5" d="M298.2,27.8v34.8c0,3.9-0.1,6.7-0.5,8.3s-1.3,3.2-2.9,4.9c-1.6,1.7-3.8,2.9-6.4,3.9c-2.7,0.8-5.7,1.3-9.4,1.3
		c-4,0-7.5-0.5-10.6-1.5c-3.1-1.1-5.3-2.4-6.9-4c-1.5-1.7-2.4-3.4-2.7-5.2c-0.3-1.8-0.4-5.7-0.4-11.6V27.8h17.4v39
		c0,2.2,0.1,3.7,0.5,4.3c0.3,0.6,1,1,1.9,1c1.1,0,1.8-0.4,2.1-1.1c0.3-0.7,0.5-2.3,0.5-4.9V27.8H298.2z"/>
	
		<linearGradient id="SVGID_7_" gradientUnits="userSpaceOnUse" x1="20.7424" y1="901.0313" x2="650.1389" y2="941.4635" gradientTransform="matrix(1 0 0 1 0 -866)">
		<stop  offset="2.230000e-02" style="stop-color:#BC9873"/>
		<stop  offset="0.2212" style="stop-color:#CDAC80"/>
		<stop  offset="0.3832" style="stop-color:#F5EBBA"/>
		<stop  offset="0.791" style="stop-color:#F5EBBA"/>
		<stop  offset="1" style="stop-color:#BC9873"/>
	</linearGradient>
	<path class="st6" d="M330.3,27.8l10,52h-17.8l-0.8-9.3h-6.2l-1.1,9.3h-18l8.8-52C305.2,27.8,330.3,27.8,330.3,27.8z M321.1,61.3
		c-0.9-5.9-1.8-13.2-2.7-21.8c-1.8,10-2.9,17.2-3.3,21.8H321.1z"/>
	
		<linearGradient id="SVGID_8_" gradientUnits="userSpaceOnUse" x1="30.6385" y1="898.5005" x2="643.2109" y2="937.8521" gradientTransform="matrix(1 0 0 1 0 -866)">
		<stop  offset="2.230000e-02" style="stop-color:#BC9873"/>
		<stop  offset="0.2212" style="stop-color:#CDAC80"/>
		<stop  offset="0.3832" style="stop-color:#F5EBBA"/>
		<stop  offset="0.791" style="stop-color:#F5EBBA"/>
		<stop  offset="1" style="stop-color:#BC9873"/>
	</linearGradient>
	<path class="st7" d="M382,27.8v52h-15.2l-9-23.6v23.6h-14.5v-52h14.5l9.7,23.4V27.8H382z"/>
</g>
</svg>
